<?xml version="1.0" encoding="utf-8"?>
<!-- Generator: Adobe Illustrator 19.0.0, SVG Export Plug-In . SVG Version: 6.00 Build 0)  -->
<svg version="1.1" id="Warstwa_1" xmlns="http://www.w3.org/2000/svg" xmlns:xlink="http://www.w3.org/1999/xlink" x="0px" y="0px"
	 viewBox="0 0 4444 2555" style="enable-background:new 0 0 4444 2555;" xml:space="preserve">
<style type="text/css">
	.st0{fill:#3D4747;}
	.st1{fill:none;}
	.st2{fill:#3B6468;}
	.st3{fill:#507D84;}
	.st4{fill:none;stroke:#507D84;stroke-width:0;stroke-linecap:round;stroke-linejoin:round;}
</style>
<rect id="XMLID_27_" x="3961" y="1172.3" class="st0" width="125.7" height="984.1"/>
<rect id="XMLID_28_" x="3606.6" y="1005.8" class="st0" width="354.4" height="1044.4"/>
<rect id="XMLID_66_" x="3883.5" y="1664.4" class="st0" width="560.5" height="231.4"/>
<rect id="XMLID_20_" x="0" y="1499.7" class="st0" width="600.2" height="525.8"/>
<rect id="XMLID_21_" x="873.9" y="1499.7" class="st0" width="492.2" height="550.6"/>
<rect id="XMLID_23_" x="1651.9" y="1306.2" class="st0" width="400.1" height="687.2"/>
<rect id="XMLID_24_" x="2262.9" y="781" class="st0" width="286.3" height="1212.5"/>
<rect id="XMLID_25_" x="3231.3" y="1190.3" class="st0" width="211.5" height="860"/>
<rect id="XMLID_26_" x="3046.5" y="1499.7" class="st0" width="1120.3" height="323.4"/>
<rect id="XMLID_52_" x="4338.3" y="1190.3" class="st0" width="105.7" height="859.9"/>
<rect id="XMLID_31_" x="4166.8" y="1343.1" class="st0" width="128.3" height="1077.9"/>
<rect id="XMLID_33_" x="1274.6" y="1005.8" class="st0" width="285.8" height="994.8"/>
<rect id="XMLID_34_" x="280.1" y="949.1" class="st0" width="228.6" height="1352.8"/>
<line id="XMLID_40_" class="st1" x1="873.9" y1="-528.3" x2="3416.2" y2="-277"/>
<rect id="XMLID_1_" x="817.4" y="1097.9" class="st2" width="205.8" height="1124.6"/>
<rect id="XMLID_3_" x="1651.9" y="1489.8" class="st2" width="100.9" height="812.2"/>
<rect id="XMLID_4_" x="2497.8" y="1005.8" class="st2" width="102.9" height="1216.7"/>
<rect id="XMLID_5_" x="2052" y="1306.2" class="st2" width="211" height="916.3"/>
<rect id="XMLID_6_" x="3698.1" y="1489.8" class="st2" width="262.9" height="666.7"/>
<polygon id="XMLID_42_" class="st2" points="4444,833.9 4444,1664.4 4380.8,1664.4 4380.8,1190.3 4338.3,1190.3 4338.3,833.9 "/>
<polygon id="XMLID_55_" class="st2" points="4444,1664.4 4444,2301.9 4338.3,2301.9 4338.3,1190.3 4380.8,1190.3 4380.8,1664.4 "/>
<rect id="XMLID_8_" x="0" y="1764.4" class="st2" width="428.7" height="458.2"/>
<rect id="XMLID_9_" x="1434.7" y="529.7" class="st2" width="11.4" height="1626.7"/>
<rect id="XMLID_10_" x="1869.1" y="1489.8" class="st2" width="11.4" height="453.7"/>
<rect id="XMLID_11_" x="3416.2" y="949.1" class="st2" width="53.3" height="1101.1"/>
<rect id="XMLID_12_" x="2886.5" y="1172.3" class="st2" width="160" height="245.3"/>
<rect id="XMLID_13_" x="600.2" y="1716.6" class="st2" width="522.4" height="0"/>
<rect id="XMLID_14_" x="508.7" y="1614.2" class="st2" width="613.8" height="272"/>
<rect id="XMLID_15_" x="3046.5" y="1750.2" class="st2" width="262.9" height="72.9"/>
<rect id="XMLID_16_" x="4246.8" y="1097.9" class="st2" width="48.3" height="725.2"/>
<rect id="XMLID_17_" x="1560.4" y="437.1" class="st2" width="320.1" height="1506.3"/>
<rect id="XMLID_19_" x="3046.5" y="1823.1" class="st2" width="369.7" height="227.1"/>
<g id="XMLID_18_">
	<path id="XMLID_44_" class="st3" d="M4295.1,1878.8v-158.7v-164.2h-128.6v164.2h-154.3v-503h-128.6v503h-308.7v-379.8h-4.3V744.9
		h-4.3v595.4h-308.7v538.6h-111.5v-661.7h-197.2V847.5h-55.7v369.5h-55.7V26.3h-38.6v1190.8h-158.6v661.7h-214.4v-600.1h-162.9
		v600.1h-111.5v118.4v-118.4h-60v-127.9h-94.3h-68.6v-92.4h-17.1v92.4h-158.6v-533.8h-38.6v533.8h-171.5v-472.2h-25.7v472.2h-102.9
		v127.9h-171.5v-661.7h-120v661.7H925.3v-127.9H822.4v127.9h-73.6V557.3H625.2v844.6H445.1v477H230.8v-538.6H145v538.6H0v707.3h4444
		v-707.3H4295.1z M4012.1,2022.9v25.7V2022.9z"/>
	<line id="XMLID_45_" class="st4" x1="2151.5" y1="1997.2" x2="2151.5" y2="1878.8"/>
	<line id="XMLID_46_" class="st4" x1="2151.5" y1="1878.8" x2="2151.5" y2="909.1"/>
	<line id="XMLID_47_" class="st4" x1="4012.1" y1="1063.1" x2="4012.1" y2="1217.1"/>
	<line id="XMLID_48_" class="st4" x1="4012.1" y1="2048.6" x2="4012.1" y2="2022.9"/>
	<line id="XMLID_49_" class="st4" x1="4012.1" y1="1217.1" x2="4012.1" y2="1720.1"/>
</g>
<rect id="XMLID_29_" x="4166.8" y="1343.1" class="st0" width="171.5" height="44.2"/>
</svg>
