<?xml version="1.0" encoding="utf-8"?>
<!-- Generator: Adobe Illustrator 19.0.0, SVG Export Plug-In . SVG Version: 6.00 Build 0)  -->
<svg version="1.1" id="Warstwa_1" xmlns="http://www.w3.org/2000/svg" xmlns:xlink="http://www.w3.org/1999/xlink" x="0px" y="0px"
	 viewBox="0 0 212.6 212.6" style="enable-background:new 0 0 212.6 212.6;" xml:space="preserve">
<style type="text/css">
	.st0{fill:#EABE43;}
	.st1{fill:#FFFFFF;}
	.st2{fill:#D2EDF3;}
</style>
<circle id="XMLID_12_" class="st0" cx="139.9" cy="89.7" r="43.9"/>
<circle id="XMLID_11_" class="st1" cx="62.9" cy="130.3" r="43.9"/>
<circle id="XMLID_10_" class="st1" cx="106.8" cy="106.2" r="43.9"/>
<circle id="XMLID_9_" class="st1" cx="136.2" cy="130.3" r="43.9"/>
<circle id="XMLID_8_" class="st1" cx="101.1" cy="133.5" r="43.9"/>
<rect id="XMLID_7_" x="139.9" y="36.2" class="st0" width="5.1" height="33.8"/>
<rect id="XMLID_6_" x="173.7" y="63.9" transform="matrix(1.357324e-002 -0.9999 0.9999 1.357324e-002 93.0199 255.9323)" class="st0" width="5.1" height="33.8"/>
<rect id="XMLID_5_" x="161.9" y="43.6" transform="matrix(-0.7075 -0.7067 0.7067 -0.7075 238.0155 219.5351)" class="st0" width="5.1" height="33.8"/>
<rect id="XMLID_4_" x="118.8" y="41.8" transform="matrix(0.6502 -0.7597 0.7597 0.6502 -2.1353 112.684)" class="st0" width="5.1" height="33.8"/>
<path id="XMLID_3_" class="st2" d="M150.8,108.2c-0.2,14.9-12.4,26.9-27.4,26.9s-27.1-12-27.4-26.9c0.4,14.7,12.5,26.4,27.4,26.4
	S150.4,122.9,150.8,108.2z"/>
<path id="XMLID_2_" class="st2" d="M96,123.1C95.8,138,83.6,150,68.6,150s-27.1-12-27.4-26.9c0.4,14.7,12.5,26.4,27.4,26.4
	S95.7,137.8,96,123.1z"/>
</svg>
