<?xml version="1.0" encoding="utf-8"?>
<!-- Generator: Adobe Illustrator 19.0.0, SVG Export Plug-In . SVG Version: 6.00 Build 0)  -->
<svg version="1.1" id="Warstwa_1" xmlns="http://www.w3.org/2000/svg" xmlns:xlink="http://www.w3.org/1999/xlink" x="0px" y="0px"
	 viewBox="0 0 212.6 212.6" style="enable-background:new 0 0 212.6 212.6;" xml:space="preserve">
<style type="text/css">
	.st0{fill:#FFFFFF;}
	.st1{fill:#D2EDF3;}
	.st2{fill:#4B4B4B;}
</style>
<circle id="XMLID_47_" class="st0" cx="60.9" cy="118" r="43.9"/>
<circle id="XMLID_46_" class="st0" cx="104.8" cy="93.8" r="43.9"/>
<circle id="XMLID_45_" class="st0" cx="134.2" cy="118" r="43.9"/>
<circle id="XMLID_44_" class="st0" cx="99.2" cy="121.2" r="43.9"/>
<path id="XMLID_23_" class="st1" d="M148.8,95.9c-0.2,14.9-12.4,26.9-27.4,26.9s-27.1-12-27.4-26.9c0.4,14.7,12.5,26.4,27.4,26.4
	S148.5,110.6,148.8,95.9z"/>
<path id="XMLID_22_" class="st1" d="M94.1,110.8c-0.2,14.9-12.4,26.9-27.4,26.9s-27.1-12-27.4-26.9c0.4,14.7,12.5,26.4,27.4,26.4
	S93.7,125.5,94.1,110.8z"/>
<circle id="XMLID_19_" class="st2" cx="112" cy="95.4" r="34.3"/>
<circle id="XMLID_18_" class="st2" cx="146.3" cy="76.5" r="34.3"/>
<circle id="XMLID_17_" class="st2" cx="141.9" cy="97.9" r="34.3"/>
<circle id="XMLID_15_" class="st2" cx="169.3" cy="95.4" r="34.3"/>
</svg>
