<?xml version="1.0" encoding="utf-8"?>
<!-- Generator: Adobe Illustrator 19.0.0, SVG Export Plug-In . SVG Version: 6.00 Build 0)  -->
<svg version="1.1" id="Warstwa_1" xmlns="http://www.w3.org/2000/svg" xmlns:xlink="http://www.w3.org/1999/xlink" x="0px" y="0px"
	 viewBox="0 0 212.6 212.6" style="enable-background:new 0 0 212.6 212.6;" xml:space="preserve">
<style type="text/css">
	.st0{fill:#5EC8D8;}
	.st1{fill:#FFFFFF;}
	.st2{fill:#D2EDF3;}
</style>
<g id="XMLID_59_">
	<path id="XMLID_251_" class="st0" d="M70.6,139.6h-1.1c-2.3,0-4.1,1.8-4.1,4.1v44.9c0,2.3,1.8,4.1,4.1,4.1h1.1
		c2.3,0,4.1-1.8,4.1-4.1v-44.9C74.8,141.4,72.9,139.6,70.6,139.6z"/>
	<path id="XMLID_254_" class="st0" d="M85.6,122.6h-1.1c-2.3,0-4.1,1.8-4.1,4.1v39.2c0,2.3,1.8,4.1,4.1,4.1h1.1
		c2.3,0,4.1-1.8,4.1-4.1v-39.2C89.8,124.4,87.9,122.6,85.6,122.6z"/>
	<path id="XMLID_261_" class="st0" d="M101.1,145.6H100c-2.3,0-4.1,1.8-4.1,4.1v44.9c0,2.3,1.8,4.1,4.1,4.1h1.1
		c2.3,0,4.1-1.8,4.1-4.1v-44.9C105.3,147.4,103.4,145.6,101.1,145.6z"/>
	<path id="XMLID_265_" class="st0" d="M120,125.6h-1.1c-2.3,0-4.1,1.8-4.1,4.1v44.9c0,2.3,1.8,4.1,4.1,4.1h1.1
		c2.3,0,4.1-1.8,4.1-4.1v-44.9C124.1,127.4,122.3,125.6,120,125.6z"/>
	<path id="XMLID_266_" class="st0" d="M140.3,149.3h-1.1c-2.3,0-4.1,1.8-4.1,4.1v21.3c0,2.3,1.8,4.1,4.1,4.1h1.1
		c2.3,0,4.1-1.8,4.1-4.1v-21.3C144.4,151.1,142.6,149.3,140.3,149.3z"/>
	<path id="XMLID_268_" class="st0" d="M140.3,129.3h-1.1c-2.3,0-4.1,1.8-4.1,4.1v5.4c0,2.3,1.8,4.1,4.1,4.1h1.1
		c2.3,0,4.1-1.8,4.1-4.1v-5.4C144.4,131.1,142.6,129.3,140.3,129.3z"/>
	<path id="XMLID_269_" class="st0" d="M120,183.3h-1.1c-2.3,0-4.1,1.8-4.1,4.1v5.4c0,2.3,1.8,4.1,4.1,4.1h1.1c2.3,0,4.1-1.8,4.1-4.1
		v-5.4C124.1,185.1,122.3,183.3,120,183.3z"/>
	<path id="XMLID_270_" class="st0" d="M100.6,125.6c-2.6,0-4.7,2.1-4.7,4.7v4.3c0,2.6,2.1,4.7,4.7,4.7s4.7-2.1,4.7-4.7v-4.3
		C105.3,127.7,103.1,125.6,100.6,125.6z"/>
	<path id="XMLID_271_" class="st0" d="M150.1,179.5c-2.6,0-4.7,2.1-4.7,4.7v4.3c0,2.6,2.1,4.7,4.7,4.7s4.7-2.1,4.7-4.7v-4.3
		C154.8,181.6,152.6,179.5,150.1,179.5z"/>
</g>
<circle id="XMLID_57_" class="st1" cx="69.6" cy="92.7" r="43.9"/>
<circle id="XMLID_56_" class="st1" cx="113.6" cy="68.5" r="43.9"/>
<path id="XMLID_55_" class="st1" d="M186.9,92.7c0,23.8-18.9,43.1-42.5,43.9c-0.5,0-1,0-1.4,0c-2.7,0-5.3-0.2-7.9-0.7
	c-2-0.4-4-0.9-5.9-1.5c-1.7-0.6-3.4-1.3-5.1-2c-3-1.4-5.8-3.2-8.4-5.2c-3.6-2.9-6.8-6.3-9.4-10.2c-0.1-0.2-0.2-0.3-0.3-0.5l0,0
	c-0.2-0.3-0.4-0.6-0.6-0.9c-0.8-1.4-1.6-2.8-2.2-4.2c-2.6-5.6-4.1-11.9-4.1-18.5c0-0.7,0-1.3,0-2c0.4-8.2,3-15.8,7.2-22.2
	c3.9-5.9,9.2-10.8,15.5-14.3S135.3,49,143,49c3.6,0,7.1,0.4,10.4,1.2c3.9,0.9,7.5,2.4,10.9,4.3c6.7,3.7,12.3,9.1,16.2,15.6l0,0
	c0.5,0.9,1,1.8,1.5,2.7l0,0C185.1,78.7,186.9,85.5,186.9,92.7z"/>
<circle id="XMLID_54_" class="st1" cx="108" cy="95.9" r="43.9"/>
<path id="XMLID_53_" class="st2" d="M150.8,95.7c-0.2,14.9-12.4,26.9-27.4,26.9s-27.1-12-27.4-26.9c0.4,14.7,12.5,26.4,27.4,26.4
	S150.4,110.3,150.8,95.7z"/>
<path id="XMLID_52_" class="st2" d="M96.1,110.6c-0.2,14.9-12.4,26.9-27.4,26.9s-27.1-12-27.4-26.9c0.4,14.7,12.5,26.4,27.4,26.4
	S95.6,125.2,96.1,110.6z"/>
</svg>
