<?xml version="1.0" encoding="utf-8"?>
<!-- Generator: Adobe Illustrator 19.0.0, SVG Export Plug-In . SVG Version: 6.00 Build 0)  -->
<svg version="1.1" id="Warstwa_1" xmlns="http://www.w3.org/2000/svg" xmlns:xlink="http://www.w3.org/1999/xlink" x="0px" y="0px"
	 viewBox="0 0 212.6 212.6" style="enable-background:new 0 0 212.6 212.6;" xml:space="preserve">
<style type="text/css">
	.st0{fill:#FFFFFF;}
	.st1{fill:#D2EDF3;}
	.st2{fill:none;}
</style>
<circle id="XMLID_235_" class="st0" cx="69.4" cy="85.9" r="43.9"/>
<path id="XMLID_234_" class="st0" d="M157.3,61.8c0,8-2.2,15.6-6,22.1c-7.6,13-21.8,21.8-37.9,21.8c-1.5,0-3.1-0.1-4.6-0.2
	c-2-0.2-4-0.5-5.9-1c-0.7-0.2-1.4-0.4-2.1-0.6c-0.1,0-0.2-0.1-0.3-0.1c-8.4-2.6-15.7-7.6-21.1-14.2c-5.1-6.3-8.5-14-9.6-22.4
	c-0.2-1.7-0.3-3.5-0.3-5.3c0-7,1.6-13.6,4.6-19.5C81.2,27.9,96.1,18,113.3,18c15.9,0,29.9,8.5,37.6,21.2c0.8,1.3,1.6,2.8,2.2,4.2
	C155.8,48.9,157.3,55.2,157.3,61.8z"/>
<path id="XMLID_233_" class="st0" d="M186.6,85.9c0,12.9-5.6,24.6-14.5,32.6c-7.4,6.7-17.2,10.9-28,11.3c-0.5,0-1,0-1.4,0
	c-2.7,0-5.3-0.2-7.9-0.7c-2-0.4-4-0.9-5.9-1.5c-1.7-0.6-3.4-1.3-5.1-2c-1.2-0.6-2.4-1.2-3.5-1.9c-1.7-1-3.3-2.1-4.8-3.3
	c-3.6-2.9-6.8-6.3-9.4-10.2c-0.1-0.2-0.2-0.3-0.3-0.5l0,0c-0.2-0.3-0.4-0.6-0.6-0.9l0,0c-0.8-1.4-1.6-2.8-2.2-4.2
	C100.5,98.9,99,92.6,99,86c0-0.7,0-1.3,0-2c0.1-3.2,0.6-6.3,1.4-9.2l0,0c1.2-4.7,3.2-9,5.8-13c3.9-5.9,9.2-10.8,15.5-14.3
	s13.5-5.4,21.2-5.4c1.3,0,2.5,0.1,3.7,0.2c2.3,0.2,4.5,0.5,6.7,1.1c3.9,0.9,7.5,2.4,10.9,4.3c0.3,0.2,0.6,0.4,0.9,0.5
	c0.2,0.1,0.5,0.3,0.7,0.4c0.3,0.2,0.5,0.3,0.8,0.5c0.4,0.3,0.8,0.5,1.2,0.8c0.5,0.3,0.9,0.6,1.3,1c0.3,0.2,0.6,0.5,0.9,0.7
	c0.4,0.3,0.7,0.6,1.1,0.9c0.4,0.3,0.8,0.7,1.2,1c0.3,0.3,0.6,0.6,1,0.9c0.3,0.3,0.7,0.7,1,1l0.1,0.1c0.3,0.3,0.6,0.6,0.9,0.9
	c0.3,0.3,0.6,0.7,0.9,1.1c0.2,0.3,0.5,0.6,0.7,0.9c0.1,0.1,0.2,0.3,0.3,0.4c0,0,0,0,0,0.1c0.8,1,1.5,2,2.2,3.1
	c0.2,0.4,0.5,0.7,0.7,1.1l0,0c0.1,0.1,0.1,0.2,0.2,0.3l0,0c0.5,0.9,1,1.8,1.5,2.7l0,0c0.6,1.2,1.2,2.4,1.7,3.7
	C185.6,74.6,186.6,80.1,186.6,85.9z"/>
<circle id="XMLID_232_" class="st0" cx="107.7" cy="89.1" r="43.9"/>
<path id="XMLID_231_" class="st1" d="M150.6,88.9c-0.2,14.9-12.4,26.9-27.4,26.9s-27.1-12-27.4-26.9c0.4,14.7,12.5,26.4,27.4,26.4
	S150.1,103.5,150.6,88.9z"/>
<path id="XMLID_230_" class="st1" d="M95.8,103.8c-0.2,14.9-12.4,26.9-27.4,26.9s-27.1-12-27.4-26.9c0.4,14.7,12.5,26.4,27.4,26.4
	S95.4,118.5,95.8,103.8z"/>
<ellipse id="XMLID_228_" class="st0" cx="63.7" cy="145.8" rx="8.1" ry="7.5"/>
<line id="XMLID_227_" class="st2" x1="63.8" y1="125.7" x2="63.8" y2="165.3"/>
<rect id="XMLID_226_" x="49" y="145.4" class="st2" width="29.8" height="4.1"/>
<path id="XMLID_225_" class="st0" d="M63.8,137.6L63.8,137.6c-0.3,0-0.6-0.3-0.6-0.6v-2c0-0.3,0.3-0.6,0.6-0.6l0,0
	c0.3,0,0.6,0.3,0.6,0.6v2C64.3,137.4,64.2,137.6,63.8,137.6z"/>
<path id="XMLID_224_" class="st0" d="M63.7,156.8L63.7,156.8c-0.3,0-0.6-0.3-0.6-0.6v-2c0-0.3,0.3-0.6,0.6-0.6l0,0
	c0.3,0,0.6,0.3,0.6,0.6v2C64.3,156.5,63.9,156.8,63.7,156.8z"/>
<path id="XMLID_223_" class="st0" d="M68.3,153.1L68.3,153.1c-0.3,0.3-0.7,0.2-0.8,0l-1.1-1.8c-0.2-0.2-0.1-0.6,0.1-0.7l0.1-0.1
	c0.2-0.2,0.6-0.1,0.7,0.1l1.1,1.8C68.7,152.7,68.7,153,68.3,153.1z"/>
<path id="XMLID_222_" class="st0" d="M65.3,140.6L65.3,140.6c-0.3-0.1-0.4-0.5-0.3-0.8l0.9-1.7c0.1-0.3,0.5-0.4,0.8-0.3l0,0
	c0.3,0.1,0.4,0.5,0.3,0.8l-0.9,1.7C66.1,140.6,65.7,140.7,65.3,140.6z"/>
<path id="XMLID_221_" class="st0" d="M59.7,141.6L59.7,141.6c-0.2,0.3-0.6,0.3-0.8,0.1l-1.5-1.2c-0.3-0.2-0.3-0.6-0.1-0.8l0,0
	c0.2-0.3,0.6-0.3,0.8-0.1l1.5,1.2C59.8,141,59.8,141.4,59.7,141.6z"/>
<path id="XMLID_220_" class="st0" d="M55.2,148.9L55.2,148.9c-0.2-0.3,0-0.6,0.2-0.8l1.7-0.9c0.3-0.2,0.6,0,0.8,0.2l0,0
	c0.2,0.3,0,0.6-0.2,0.8l-1.7,0.9C55.7,149.3,55.3,149.1,55.2,148.9z"/>
<path id="XMLID_219_" class="st0" d="M55.3,152.5L55.3,152.5c-0.2-0.2-0.2-0.6,0-0.8l1.5-1.3c0.2-0.2,0.6-0.2,0.8,0l0,0
	c0.2,0.2,0.2,0.6,0,0.8l-1.5,1.3C56,152.8,55.5,152.7,55.3,152.5z"/>
<path id="XMLID_218_" class="st0" d="M68.2,141.7L68.2,141.7c-0.2-0.2-0.2-0.6,0-0.8l1.4-1.4c0.2-0.2,0.6-0.2,0.8,0l0,0
	c0.2,0.2,0.2,0.6,0,0.8l-1.4,1.4C68.8,142,68.3,142,68.2,141.7z"/>
<path id="XMLID_217_" class="st0" d="M75.3,145.6L75.3,145.6c0,0.3-0.3,0.6-0.6,0.6l-2-0.1c-0.3,0-0.6-0.3-0.6-0.6l0,0
	c0-0.3,0.3-0.6,0.6-0.6l2,0.1C75.2,145,75.3,145.2,75.3,145.6z"/>
<path id="XMLID_216_" class="st0" d="M56.5,144.1L56.5,144.1c-0.1,0.3-0.4,0.5-0.8,0.3l-1.8-0.7c-0.3-0.1-0.5-0.4-0.3-0.8l0,0
	c0.1-0.3,0.4-0.5,0.8-0.3l1.8,0.7C56.5,143.5,56.7,143.8,56.5,144.1z"/>
<path id="XMLID_215_" class="st0" d="M73.7,149.2L73.7,149.2c-0.2,0.3-0.5,0.4-0.8,0.2l-1.7-0.9c-0.3-0.2-0.4-0.5-0.2-0.8l0,0
	c0.2-0.3,0.5-0.4,0.8-0.2l1.7,0.9C73.7,148.6,73.8,149,73.7,149.2z"/>
<path id="XMLID_214_" class="st0" d="M70.4,150.9L70.4,150.9c-0.2,0.3-0.6,0.3-0.8,0.1l-1.6-1.2c-0.3-0.2-0.3-0.6-0.1-0.8l0,0
	c0.2-0.3,0.6-0.3,0.8-0.1l1.6,1.2C70.6,150.3,70.7,150.6,70.4,150.9z"/>
<path id="XMLID_213_" class="st0" d="M61.6,139.1L61.6,139.1c-0.3,0.1-0.6,0-0.8-0.3l-0.7-1.8c-0.1-0.3,0-0.6,0.3-0.8l0,0
	c0.3-0.1,0.6,0,0.8,0.3l0.7,1.8C62.1,138.6,61.8,139,61.6,139.1z"/>
<path id="XMLID_212_" class="st0" d="M71.3,152.1L71.3,152.1c-0.3,0-0.6-0.3-0.6-0.6v-0.2c0-0.3,0.3-0.6,0.6-0.6l0,0
	c0.3,0,0.6,0.3,0.6,0.6v0.2C71.9,151.9,71.7,152.1,71.3,152.1z"/>
<path id="XMLID_211_" class="st0" d="M66.9,155.2L66.9,155.2c-0.3,0-0.6-0.3-0.6-0.6v-0.2c0-0.3,0.3-0.6,0.6-0.6l0,0
	c0.3,0,0.6,0.3,0.6,0.6v0.2C67.4,155,67.3,155.2,66.9,155.2z"/>
<path id="XMLID_210_" class="st0" d="M60.3,154.4L60.3,154.4c-0.3,0-0.6-0.3-0.6-0.6v-0.2c0-0.3,0.3-0.6,0.6-0.6l0,0
	c0.3,0,0.6,0.3,0.6,0.6v0.2C60.9,154.1,60.8,154.4,60.3,154.4z"/>
<path id="XMLID_209_" class="st0" d="M53.8,146.9L53.8,146.9c-0.3,0-0.6-0.3-0.6-0.6v-0.2c0-0.3,0.3-0.6,0.6-0.6l0,0
	c0.3,0,0.6,0.3,0.6,0.6v0.2C54.3,146.6,54,146.9,53.8,146.9z"/>
<path id="XMLID_208_" class="st0" d="M55.5,142.1L55.5,142.1c-0.3,0-0.6-0.3-0.6-0.6v-0.2c0-0.3,0.3-0.6,0.6-0.6l0,0
	c0.3,0,0.6,0.3,0.6,0.6v0.2C56.2,141.8,55.8,142.1,55.5,142.1z"/>
<path id="XMLID_207_" class="st0" d="M72.8,142.3L72.8,142.3c-0.3,0-0.6-0.3-0.6-0.6v-0.2c0-0.3,0.3-0.6,0.6-0.6l0,0
	c0.3,0,0.6,0.3,0.6,0.6v0.2C73.4,142,73.2,142.3,72.8,142.3z"/>
<path id="XMLID_206_" class="st0" d="M68.7,138.4L68.7,138.4c-0.3,0-0.6-0.3-0.6-0.6v-0.2c0-0.3,0.3-0.6,0.6-0.6l0,0
	c0.3,0,0.6,0.3,0.6,0.6v0.2C69.2,138.2,68.9,138.4,68.7,138.4z"/>
<path id="XMLID_205_" class="st0" d="M71.3,139L71.3,139c-0.3,0-0.6-0.3-0.6-0.6v-0.2c0-0.3,0.3-0.6,0.6-0.6l0,0
	c0.3,0,0.6,0.3,0.6,0.6v0.2C71.9,138.7,71.7,139,71.3,139z"/>
<path id="XMLID_204_" class="st0" d="M69.8,154.6L69.8,154.6c-0.3,0-0.6-0.3-0.6-0.6v-0.2c0-0.3,0.3-0.6,0.6-0.6l0,0
	c0.3,0,0.6,0.3,0.6,0.6v0.2C70.4,154.3,70.2,154.6,69.8,154.6z"/>
<path id="XMLID_203_" class="st0" d="M57.2,154.4L57.2,154.4c-0.3,0-0.6-0.3-0.6-0.6v-0.2c0-0.3,0.3-0.6,0.6-0.6l0,0
	c0.3,0,0.6,0.3,0.6,0.6v0.2C57.7,154.1,57.5,154.4,57.2,154.4z"/>
<ellipse id="XMLID_202_" class="st0" cx="95.7" cy="163.7" rx="8.1" ry="7.5"/>
<line id="XMLID_201_" class="st2" x1="95.8" y1="143.6" x2="95.8" y2="183.2"/>
<rect id="XMLID_200_" x="80.9" y="163.3" class="st2" width="29.8" height="4.1"/>
<path id="XMLID_199_" class="st0" d="M95.8,155.5L95.8,155.5c-0.3,0-0.6-0.3-0.6-0.6v-2c0-0.3,0.3-0.6,0.6-0.6l0,0
	c0.3,0,0.6,0.3,0.6,0.6v2C96.3,155.2,96.2,155.5,95.8,155.5z"/>
<path id="XMLID_198_" class="st0" d="M95.7,174.7L95.7,174.7c-0.3,0-0.6-0.3-0.6-0.6v-2c0-0.3,0.3-0.6,0.6-0.6l0,0
	c0.3,0,0.6,0.3,0.6,0.6v2C96.3,174.4,95.9,174.7,95.7,174.7z"/>
<path id="XMLID_197_" class="st0" d="M100.3,171L100.3,171c-0.3,0.3-0.7,0.2-0.8,0l-1.1-1.8c-0.2-0.2-0.1-0.6,0.1-0.7l0.1-0.1
	c0.2-0.2,0.6-0.1,0.7,0.1l1.1,1.8C100.7,170.5,100.7,170.9,100.3,171z"/>
<path id="XMLID_196_" class="st0" d="M97.3,158.5L97.3,158.5c-0.3-0.1-0.4-0.5-0.3-0.8l0.9-1.7c0.1-0.3,0.5-0.4,0.8-0.3l0,0
	c0.3,0.1,0.4,0.5,0.3,0.8l-0.9,1.7C98.1,158.5,97.7,158.6,97.3,158.5z"/>
<path id="XMLID_195_" class="st0" d="M91.7,159.5L91.7,159.5c-0.2,0.3-0.6,0.3-0.8,0.1l-1.5-1.2c-0.3-0.2-0.3-0.6-0.1-0.8l0,0
	c0.2-0.3,0.6-0.3,0.8-0.1l1.5,1.2C91.8,158.9,91.8,159.2,91.7,159.5z"/>
<path id="XMLID_194_" class="st0" d="M87.2,166.7L87.2,166.7c-0.2-0.3,0-0.6,0.2-0.8L89,165c0.3-0.2,0.6,0,0.8,0.2l0,0
	c0.2,0.3,0,0.6-0.2,0.8l-1.7,0.9C87.7,167.1,87.3,167,87.2,166.7z"/>
<path id="XMLID_193_" class="st0" d="M87.3,170.4L87.3,170.4c-0.2-0.2-0.2-0.6,0-0.8l1.5-1.3c0.2-0.2,0.6-0.2,0.8,0l0,0
	c0.2,0.2,0.2,0.6,0,0.8l-1.5,1.3C87.9,170.6,87.6,170.6,87.3,170.4z"/>
<path id="XMLID_192_" class="st0" d="M100.2,159.6L100.2,159.6c-0.2-0.2-0.2-0.6,0-0.8l1.4-1.4c0.2-0.2,0.6-0.2,0.8,0l0,0
	c0.2,0.2,0.2,0.6,0,0.8l-1.4,1.4C100.8,159.8,100.3,159.8,100.2,159.6z"/>
<path id="XMLID_191_" class="st0" d="M107.3,163.4L107.3,163.4c0,0.3-0.3,0.6-0.6,0.6l-2-0.1c-0.3,0-0.6-0.3-0.6-0.6l0,0
	c0-0.3,0.3-0.6,0.6-0.6l2,0.1C107.2,162.8,107.3,163.1,107.3,163.4z"/>
<path id="XMLID_190_" class="st0" d="M88.4,162L88.4,162c-0.1,0.3-0.4,0.5-0.8,0.3l-1.8-0.7c-0.3-0.1-0.5-0.4-0.3-0.8l0,0
	c0.1-0.3,0.4-0.5,0.8-0.3l1.8,0.7C88.4,161.4,88.6,161.7,88.4,162z"/>
<path id="XMLID_189_" class="st0" d="M105.7,167.1L105.7,167.1c-0.2,0.3-0.5,0.4-0.8,0.2l-1.7-0.9c-0.3-0.2-0.4-0.5-0.2-0.8l0,0
	c0.2-0.3,0.5-0.4,0.8-0.2l1.7,0.9C105.7,166.5,105.8,166.8,105.7,167.1z"/>
<path id="XMLID_188_" class="st0" d="M102.4,168.8L102.4,168.8c-0.2,0.3-0.6,0.3-0.8,0.1l-1.6-1.2c-0.3-0.2-0.3-0.6-0.1-0.8l0,0
	c0.2-0.3,0.6-0.3,0.8-0.1l1.6,1.2C102.6,168.1,102.7,168.5,102.4,168.8z"/>
<path id="XMLID_187_" class="st0" d="M93.6,157L93.6,157c-0.3,0.1-0.6,0-0.8-0.3l-0.7-1.8c-0.1-0.3,0-0.6,0.3-0.8l0,0
	c0.3-0.1,0.6,0,0.8,0.3l0.7,1.8C94.1,156.5,93.8,156.8,93.6,157z"/>
<path id="XMLID_186_" class="st0" d="M103.3,170L103.3,170c-0.3,0-0.6-0.3-0.6-0.6v-0.2c0-0.3,0.3-0.6,0.6-0.6l0,0
	c0.3,0,0.6,0.3,0.6,0.6v0.2C103.9,169.7,103.7,170,103.3,170z"/>
<path id="XMLID_185_" class="st0" d="M98.8,173.1L98.8,173.1c-0.3,0-0.6-0.3-0.6-0.6v-0.2c0-0.3,0.3-0.6,0.6-0.6l0,0
	c0.3,0,0.6,0.3,0.6,0.6v0.2C99.4,172.8,99.3,173.1,98.8,173.1z"/>
<path id="XMLID_184_" class="st0" d="M92.3,172.2L92.3,172.2c-0.3,0-0.6-0.3-0.6-0.6v-0.2c0-0.3,0.3-0.6,0.6-0.6l0,0
	c0.3,0,0.6,0.3,0.6,0.6v0.2C92.9,172,92.8,172.2,92.3,172.2z"/>
<path id="XMLID_183_" class="st0" d="M85.8,164.8L85.8,164.8c-0.3,0-0.6-0.3-0.6-0.6V164c0-0.3,0.3-0.6,0.6-0.6l0,0
	c0.3,0,0.6,0.3,0.6,0.6v0.2C86.3,164.5,86.1,164.8,85.8,164.8z"/>
<path id="XMLID_182_" class="st0" d="M87.6,159.9L87.6,159.9c-0.3,0-0.6-0.3-0.6-0.6v-0.2c0-0.3,0.3-0.6,0.6-0.6l0,0
	c0.3,0,0.6,0.3,0.6,0.6v0.2C88.2,159.7,87.8,159.9,87.6,159.9z"/>
<path id="XMLID_181_" class="st0" d="M104.8,160.2L104.8,160.2c-0.3,0-0.6-0.3-0.6-0.6v-0.2c0-0.3,0.3-0.6,0.6-0.6l0,0
	c0.3,0,0.6,0.3,0.6,0.6v0.2C105.3,159.9,105.2,160.2,104.8,160.2z"/>
<path id="XMLID_180_" class="st0" d="M100.7,156.3L100.7,156.3c-0.3,0-0.6-0.3-0.6-0.6v-0.2c0-0.3,0.3-0.6,0.6-0.6l0,0
	c0.3,0,0.6,0.3,0.6,0.6v0.2C101.2,156,100.9,156.3,100.7,156.3z"/>
<path id="XMLID_179_" class="st0" d="M103.3,156.9L103.3,156.9c-0.3,0-0.6-0.3-0.6-0.6v-0.2c0-0.3,0.3-0.6,0.6-0.6l0,0
	c0.3,0,0.6,0.3,0.6,0.6v0.2C103.9,156.6,103.7,156.9,103.3,156.9z"/>
<path id="XMLID_178_" class="st0" d="M101.8,172.4L101.8,172.4c-0.3,0-0.6-0.3-0.6-0.6v-0.2c0-0.3,0.3-0.6,0.6-0.6l0,0
	c0.3,0,0.6,0.3,0.6,0.6v0.2C102.4,172.2,102.2,172.4,101.8,172.4z"/>
<path id="XMLID_177_" class="st0" d="M89.2,172.2L89.2,172.2c-0.3,0-0.6-0.3-0.6-0.6v-0.2c0-0.3,0.3-0.6,0.6-0.6l0,0
	c0.3,0,0.6,0.3,0.6,0.6v0.2C89.7,172,89.4,172.2,89.2,172.2z"/>
<ellipse id="XMLID_176_" class="st0" cx="120.2" cy="143" rx="8.1" ry="7.5"/>
<line id="XMLID_175_" class="st2" x1="120.3" y1="122.9" x2="120.3" y2="162.5"/>
<rect id="XMLID_174_" x="105.3" y="142.6" class="st2" width="29.8" height="4.1"/>
<path id="XMLID_173_" class="st0" d="M120.3,134.8L120.3,134.8c-0.3,0-0.6-0.3-0.6-0.6v-2c0-0.3,0.3-0.6,0.6-0.6l0,0
	c0.3,0,0.6,0.3,0.6,0.6v2C120.8,134.5,120.6,134.8,120.3,134.8z"/>
<path id="XMLID_172_" class="st0" d="M120.2,154L120.2,154c-0.3,0-0.6-0.3-0.6-0.6v-2c0-0.3,0.3-0.6,0.6-0.6l0,0
	c0.3,0,0.6,0.3,0.6,0.6v2C120.7,153.7,120.4,154,120.2,154z"/>
<path id="XMLID_171_" class="st0" d="M124.9,150.3l-0.1,0.1c-0.2,0.2-0.6,0.1-0.7-0.1l-1.1-1.8c-0.2-0.2-0.1-0.6,0.1-0.7l0.1-0.1
	c0.2-0.2,0.6-0.1,0.7,0.1l1.1,1.8C125.1,149.8,125.1,150.1,124.9,150.3z"/>
<path id="XMLID_170_" class="st0" d="M121.9,137.7L121.9,137.7c-0.3-0.1-0.4-0.5-0.3-0.8l0.9-1.7c0.1-0.3,0.5-0.4,0.8-0.3l0,0
	c0.3,0.1,0.4,0.5,0.3,0.8l-0.9,1.7C122.4,137.8,122.1,137.9,121.9,137.7z"/>
<path id="XMLID_169_" class="st0" d="M116.2,138.8L116.2,138.8c-0.2,0.3-0.6,0.3-0.8,0.1l-1.5-1.2c-0.3-0.2-0.3-0.6-0.1-0.8l0,0
	c0.2-0.3,0.6-0.3,0.8-0.1l1.5,1.2C116.3,138.2,116.3,138.5,116.2,138.8z"/>
<path id="XMLID_168_" class="st0" d="M111.7,146L111.7,146c-0.2-0.3,0-0.6,0.2-0.8l1.7-0.9c0.3-0.2,0.6,0,0.8,0.2l0,0
	c0.2,0.3,0,0.6-0.2,0.8l-1.7,0.9C112.2,146.4,111.8,146.3,111.7,146z"/>
<path id="XMLID_167_" class="st0" d="M111.8,149.6L111.8,149.6c-0.2-0.2-0.2-0.6,0-0.8l1.5-1.3c0.2-0.2,0.6-0.2,0.8,0l0,0
	c0.2,0.2,0.2,0.6,0,0.8l-1.5,1.3C112.4,149.9,112.1,149.9,111.8,149.6z"/>
<path id="XMLID_166_" class="st0" d="M124.6,138.9L124.6,138.9c-0.2-0.2-0.2-0.6,0-0.8l1.4-1.4c0.2-0.2,0.6-0.2,0.8,0l0,0
	c0.2,0.2,0.2,0.6,0,0.8l-1.4,1.4C125.3,139.1,124.9,139.1,124.6,138.9z"/>
<path id="XMLID_165_" class="st0" d="M131.9,142.7L131.9,142.7c0,0.3-0.3,0.6-0.6,0.6l-2-0.1c-0.3,0-0.6-0.3-0.6-0.6l0,0
	c0-0.3,0.3-0.6,0.6-0.6l2,0.1C131.6,142.1,131.9,142.4,131.9,142.7z"/>
<path id="XMLID_164_" class="st0" d="M112.9,141.3L112.9,141.3c-0.1,0.3-0.4,0.5-0.8,0.3l-1.8-0.7c-0.3-0.1-0.5-0.4-0.3-0.8l0,0
	c0.1-0.3,0.4-0.5,0.8-0.3l1.8,0.7C112.9,140.6,113.1,141,112.9,141.3z"/>
<path id="XMLID_163_" class="st0" d="M130.1,146.4L130.1,146.4c-0.2,0.3-0.5,0.4-0.8,0.2l-1.7-0.9c-0.3-0.2-0.4-0.5-0.2-0.8l0,0
	c0.2-0.3,0.5-0.4,0.8-0.2l1.7,0.9C130.1,145.8,130.3,146.1,130.1,146.4z"/>
<path id="XMLID_162_" class="st0" d="M126.9,148.1L126.9,148.1c-0.2,0.3-0.6,0.3-0.8,0.1l-1.6-1.2c-0.3-0.2-0.3-0.6-0.1-0.8l0,0
	c0.2-0.3,0.6-0.3,0.8-0.1l1.6,1.2C127.1,147.4,127.1,147.8,126.9,148.1z"/>
<path id="XMLID_161_" class="st0" d="M118.1,136.2L118.1,136.2c-0.3,0.1-0.6,0-0.8-0.3l-0.7-1.8c-0.1-0.3,0-0.6,0.3-0.8l0,0
	c0.3-0.1,0.6,0,0.8,0.3l0.7,1.8C118.6,135.8,118.3,136.1,118.1,136.2z"/>
<path id="XMLID_160_" class="st0" d="M127.9,149.3L127.9,149.3c-0.3,0-0.6-0.3-0.6-0.6v-0.2c0-0.3,0.3-0.6,0.6-0.6l0,0
	c0.3,0,0.6,0.3,0.6,0.6v0.2C128.4,149,128.1,149.3,127.9,149.3z"/>
<path id="XMLID_159_" class="st0" d="M123.4,152.4L123.4,152.4c-0.3,0-0.6-0.3-0.6-0.6v-0.2c0-0.3,0.3-0.6,0.6-0.6l0,0
	c0.3,0,0.6,0.3,0.6,0.6v0.2C123.9,152.1,123.6,152.4,123.4,152.4z"/>
<path id="XMLID_158_" class="st0" d="M116.8,151.5L116.8,151.5c-0.3,0-0.6-0.3-0.6-0.6v-0.2c0-0.3,0.3-0.6,0.6-0.6l0,0
	c0.3,0,0.6,0.3,0.6,0.6v0.2C117.4,151.3,117.2,151.5,116.8,151.5z"/>
<path id="XMLID_157_" class="st0" d="M110.2,144L110.2,144c-0.3,0-0.6-0.3-0.6-0.6v-0.2c0-0.3,0.3-0.6,0.6-0.6l0,0
	c0.3,0,0.6,0.3,0.6,0.6v0.2C110.8,143.8,110.6,144,110.2,144z"/>
<path id="XMLID_156_" class="st0" d="M112.1,139.2L112.1,139.2c-0.3,0-0.6-0.3-0.6-0.6v-0.2c0-0.3,0.3-0.6,0.6-0.6l0,0
	c0.3,0,0.6,0.3,0.6,0.6v0.2C112.7,139,112.3,139.2,112.1,139.2z"/>
<path id="XMLID_155_" class="st0" d="M129.3,139.4L129.3,139.4c-0.3,0-0.6-0.3-0.6-0.6v-0.2c0-0.3,0.3-0.6,0.6-0.6l0,0
	c0.3,0,0.6,0.3,0.6,0.6v0.2C129.9,139.2,129.6,139.4,129.3,139.4z"/>
<path id="XMLID_154_" class="st0" d="M125.1,135.6L125.1,135.6c-0.3,0-0.6-0.3-0.6-0.6v-0.2c0-0.3,0.3-0.6,0.6-0.6l0,0
	c0.3,0,0.6,0.3,0.6,0.6v0.2C125.6,135.3,125.4,135.6,125.1,135.6z"/>
<path id="XMLID_153_" class="st0" d="M127.9,136.1L127.9,136.1c-0.3,0-0.6-0.3-0.6-0.6v-0.2c0-0.3,0.3-0.6,0.6-0.6l0,0
	c0.3,0,0.6,0.3,0.6,0.6v0.2C128.4,135.9,128.1,136.1,127.9,136.1z"/>
<path id="XMLID_152_" class="st0" d="M126.4,151.7L126.4,151.7c-0.3,0-0.6-0.3-0.6-0.6v-0.2c0-0.3,0.3-0.6,0.6-0.6l0,0
	c0.3,0,0.6,0.3,0.6,0.6v0.2C126.9,151.4,126.6,151.7,126.4,151.7z"/>
<path id="XMLID_151_" class="st0" d="M113.6,151.5L113.6,151.5c-0.3,0-0.6-0.3-0.6-0.6v-0.2c0-0.3,0.3-0.6,0.6-0.6l0,0
	c0.3,0,0.6,0.3,0.6,0.6v0.2C114.2,151.3,113.9,151.5,113.6,151.5z"/>
<ellipse id="XMLID_150_" class="st0" cx="122.4" cy="181.5" rx="8.1" ry="7.5"/>
<line id="XMLID_149_" class="st2" x1="122.6" y1="161.5" x2="122.6" y2="201"/>
<rect id="XMLID_148_" x="107.7" y="181.2" class="st2" width="29.8" height="4.1"/>
<path id="XMLID_147_" class="st0" d="M122.6,173.4L122.6,173.4c-0.3,0-0.6-0.3-0.6-0.6v-2c0-0.3,0.3-0.6,0.6-0.6l0,0
	c0.3,0,0.6,0.3,0.6,0.6v2C123.1,173.1,122.9,173.4,122.6,173.4z"/>
<path id="XMLID_146_" class="st0" d="M122.4,192.5L122.4,192.5c-0.3,0-0.6-0.3-0.6-0.6v-2c0-0.3,0.3-0.6,0.6-0.6l0,0
	c0.3,0,0.6,0.3,0.6,0.6v2C122.9,192.3,122.8,192.5,122.4,192.5z"/>
<path id="XMLID_145_" class="st0" d="M127.1,188.9L127,189c-0.2,0.2-0.6,0.1-0.7-0.1l-1.1-1.8c-0.2-0.2-0.1-0.6,0.1-0.7l0.1-0.1
	c0.2-0.2,0.6-0.1,0.7,0.1l1.1,1.8C127.4,188.4,127.4,188.7,127.1,188.9z"/>
<path id="XMLID_144_" class="st0" d="M124.1,176.3L124.1,176.3c-0.3-0.1-0.4-0.5-0.3-0.8l0.9-1.7c0.1-0.3,0.5-0.4,0.8-0.3l0,0
	c0.3,0.1,0.4,0.5,0.3,0.8l-0.9,1.7C124.8,176.4,124.4,176.5,124.1,176.3z"/>
<path id="XMLID_143_" class="st0" d="M118.4,177.4L118.4,177.4c-0.2,0.3-0.6,0.3-0.8,0.1l-1.5-1.2c-0.3-0.2-0.3-0.6-0.1-0.8l0,0
	c0.2-0.3,0.6-0.3,0.8-0.1l1.5,1.2C118.7,176.7,118.7,177.1,118.4,177.4z"/>
<path id="XMLID_142_" class="st0" d="M113.9,184.6L113.9,184.6c-0.2-0.3,0-0.6,0.2-0.8l1.7-0.9c0.3-0.2,0.6,0,0.8,0.2l0,0
	c0.2,0.3,0,0.6-0.2,0.8l-1.7,0.9C114.4,185,114.1,184.9,113.9,184.6z"/>
<path id="XMLID_141_" class="st0" d="M114.2,188.2L114.2,188.2c-0.2-0.2-0.2-0.6,0-0.8l1.5-1.3c0.2-0.2,0.6-0.2,0.8,0l0,0
	c0.2,0.2,0.2,0.6,0,0.8l-1.5,1.3C114.8,188.5,114.3,188.5,114.2,188.2z"/>
<path id="XMLID_140_" class="st0" d="M126.9,177.5L126.9,177.5c-0.2-0.2-0.2-0.6,0-0.8l1.4-1.4c0.2-0.2,0.6-0.2,0.8,0l0,0
	c0.2,0.2,0.2,0.6,0,0.8l-1.4,1.4C127.4,177.7,127.1,177.7,126.9,177.5z"/>
<path id="XMLID_139_" class="st0" d="M134.1,181.3L134.1,181.3c0,0.3-0.3,0.6-0.6,0.6l-2-0.1c-0.3,0-0.6-0.3-0.6-0.6l0,0
	c0-0.3,0.3-0.6,0.6-0.6l2,0.1C133.9,180.7,134.1,181,134.1,181.3z"/>
<path id="XMLID_138_" class="st0" d="M115.3,179.9L115.3,179.9c-0.1,0.3-0.4,0.5-0.8,0.3l-1.8-0.7c-0.3-0.1-0.5-0.4-0.3-0.8l0,0
	c0.1-0.3,0.4-0.5,0.8-0.3l1.8,0.7C115.3,179.2,115.3,179.6,115.3,179.9z"/>
<path id="XMLID_137_" class="st0" d="M132.4,185L132.4,185c-0.2,0.3-0.5,0.4-0.8,0.2l-1.7-0.9c-0.3-0.2-0.4-0.5-0.2-0.8l0,0
	c0.2-0.3,0.5-0.4,0.8-0.2l1.7,0.9C132.4,184.3,132.6,184.7,132.4,185z"/>
<path id="XMLID_136_" class="st0" d="M129.1,186.6L129.1,186.6c-0.2,0.3-0.6,0.3-0.8,0.1l-1.6-1.2c-0.3-0.2-0.3-0.6-0.1-0.8l0,0
	c0.2-0.3,0.6-0.3,0.8-0.1l1.6,1.2C129.4,186,129.4,186.4,129.1,186.6z"/>
<path id="XMLID_135_" class="st0" d="M120.3,174.8L120.3,174.8c-0.3,0.1-0.6,0-0.8-0.3l-0.7-1.8c-0.1-0.3,0-0.6,0.3-0.8l0,0
	c0.3-0.1,0.6,0,0.8,0.3l0.7,1.8C120.8,174.4,120.7,174.7,120.3,174.8z"/>
<path id="XMLID_134_" class="st0" d="M130.1,187.9L130.1,187.9c-0.3,0-0.6-0.3-0.6-0.6v-0.2c0-0.3,0.3-0.6,0.6-0.6l0,0
	c0.3,0,0.6,0.3,0.6,0.6v0.2C130.8,187.6,130.4,187.9,130.1,187.9z"/>
<path id="XMLID_133_" class="st0" d="M125.6,191L125.6,191c-0.3,0-0.6-0.3-0.6-0.6v-0.2c0-0.3,0.3-0.6,0.6-0.6l0,0
	c0.3,0,0.6,0.3,0.6,0.6v0.2C126.3,190.7,125.9,191,125.6,191z"/>
<path id="XMLID_132_" class="st0" d="M119.2,190.1L119.2,190.1c-0.3,0-0.6-0.3-0.6-0.6v-0.2c0-0.3,0.3-0.6,0.6-0.6l0,0
	c0.3,0,0.6,0.3,0.6,0.6v0.2C119.8,189.8,119.4,190.1,119.2,190.1z"/>
<path id="XMLID_131_" class="st0" d="M112.4,182.6L112.4,182.6c-0.3,0-0.6-0.3-0.6-0.6v-0.2c0-0.3,0.3-0.6,0.6-0.6l0,0
	c0.3,0,0.6,0.3,0.6,0.6v0.2C113.1,182.4,112.8,182.6,112.4,182.6z"/>
<path id="XMLID_130_" class="st0" d="M114.3,177.8L114.3,177.8c-0.3,0-0.6-0.3-0.6-0.6V177c0-0.3,0.3-0.6,0.6-0.6l0,0
	c0.3,0,0.6,0.3,0.6,0.6v0.2C114.8,177.5,114.7,177.8,114.3,177.8z"/>
<path id="XMLID_129_" class="st0" d="M131.6,178L131.6,178c-0.3,0-0.6-0.3-0.6-0.6v-0.2c0-0.3,0.3-0.6,0.6-0.6l0,0
	c0.3,0,0.6,0.3,0.6,0.6v0.2C132.1,177.8,131.9,178,131.6,178z"/>
<path id="XMLID_128_" class="st0" d="M127.4,174.2L127.4,174.2c-0.3,0-0.6-0.3-0.6-0.6v-0.2c0-0.3,0.3-0.6,0.6-0.6l0,0
	c0.3,0,0.6,0.3,0.6,0.6v0.2C127.9,173.9,127.6,174.2,127.4,174.2z"/>
<path id="XMLID_127_" class="st0" d="M130.1,174.7L130.1,174.7c-0.3,0-0.6-0.3-0.6-0.6v-0.2c0-0.3,0.3-0.6,0.6-0.6l0,0
	c0.3,0,0.6,0.3,0.6,0.6v0.2C130.8,174.5,130.4,174.7,130.1,174.7z"/>
<path id="XMLID_126_" class="st0" d="M128.6,190.3L128.6,190.3c-0.3,0-0.6-0.3-0.6-0.6v-0.2c0-0.3,0.3-0.6,0.6-0.6l0,0
	c0.3,0,0.6,0.3,0.6,0.6v0.2C129.1,190,128.9,190.3,128.6,190.3z"/>
<path id="XMLID_125_" class="st0" d="M115.8,190.1L115.8,190.1c-0.3,0-0.6-0.3-0.6-0.6v-0.2c0-0.3,0.3-0.6,0.6-0.6l0,0
	c0.3,0,0.6,0.3,0.6,0.6v0.2C116.4,189.8,116.2,190.1,115.8,190.1z"/>
<ellipse id="XMLID_124_" class="st0" cx="142.6" cy="157.6" rx="8.1" ry="7.5"/>
<line id="XMLID_123_" class="st2" x1="142.8" y1="137.5" x2="142.8" y2="177.1"/>
<rect id="XMLID_122_" x="127.9" y="157.2" class="st2" width="29.8" height="4.1"/>
<path id="XMLID_121_" class="st0" d="M142.8,149.5L142.8,149.5c-0.3,0-0.6-0.3-0.6-0.6v-2c0-0.3,0.3-0.6,0.6-0.6l0,0
	c0.3,0,0.6,0.3,0.6,0.6v2C143.4,149.2,143.1,149.5,142.8,149.5z"/>
<path id="XMLID_120_" class="st0" d="M142.6,168.6L142.6,168.6c-0.3,0-0.6-0.3-0.6-0.6v-2c0-0.3,0.3-0.6,0.6-0.6l0,0
	c0.3,0,0.6,0.3,0.6,0.6v2C143.1,168.4,142.9,168.6,142.6,168.6z"/>
<path id="XMLID_119_" class="st0" d="M147.4,165l-0.1,0.1c-0.2,0.2-0.6,0.1-0.7-0.1l-1.1-1.8c-0.2-0.2-0.1-0.6,0.1-0.7l0.1-0.1
	c0.2-0.2,0.6-0.1,0.7,0.1l1.1,1.8C147.6,164.5,147.6,164.8,147.4,165z"/>
<path id="XMLID_118_" class="st0" d="M144.4,152.4L144.4,152.4c-0.3-0.1-0.4-0.5-0.3-0.8l0.9-1.7c0.1-0.3,0.5-0.4,0.8-0.3l0,0
	c0.3,0.1,0.4,0.5,0.3,0.8l-0.9,1.7C144.9,152.4,144.6,152.6,144.4,152.4z"/>
<path id="XMLID_117_" class="st0" d="M138.6,153.4L138.6,153.4c-0.2,0.3-0.6,0.3-0.8,0.1l-1.5-1.2c-0.3-0.2-0.3-0.6-0.1-0.8l0,0
	c0.2-0.3,0.6-0.3,0.8-0.1l1.5,1.2C138.8,152.8,138.9,153.2,138.6,153.4z"/>
<path id="XMLID_116_" class="st0" d="M134.1,160.7L134.1,160.7c-0.2-0.3,0-0.6,0.2-0.8l1.7-0.9c0.3-0.2,0.6,0,0.8,0.2l0,0
	c0.2,0.3,0,0.6-0.2,0.8l-1.7,0.9C134.6,161.1,134.3,161,134.1,160.7z"/>
<path id="XMLID_115_" class="st0" d="M134.3,164.3L134.3,164.3c-0.2-0.2-0.2-0.6,0-0.8l1.5-1.3c0.2-0.2,0.6-0.2,0.8,0l0,0
	c0.2,0.2,0.2,0.6,0,0.8l-1.5,1.3C134.9,164.6,134.6,164.5,134.3,164.3z"/>
<path id="XMLID_114_" class="st0" d="M147.1,153.6L147.1,153.6c-0.2-0.2-0.2-0.6,0-0.8l1.4-1.4c0.2-0.2,0.6-0.2,0.8,0l0,0
	c0.2,0.2,0.2,0.6,0,0.8l-1.4,1.4C147.6,153.8,147.3,153.8,147.1,153.6z"/>
<path id="XMLID_113_" class="st0" d="M154.3,157.4L154.3,157.4c0,0.3-0.3,0.6-0.6,0.6l-2-0.1c-0.3,0-0.6-0.3-0.6-0.6l0,0
	c0-0.3,0.3-0.6,0.6-0.6l2,0.1C154.1,156.8,154.3,157.1,154.3,157.4z"/>
<path id="XMLID_112_" class="st0" d="M135.4,155.9L135.4,155.9c-0.1,0.3-0.4,0.5-0.8,0.3l-1.8-0.7c-0.3-0.1-0.5-0.4-0.3-0.8l0,0
	c0.1-0.3,0.4-0.5,0.8-0.3l1.8,0.7C135.4,155.3,135.6,155.6,135.4,155.9z"/>
<path id="XMLID_111_" class="st0" d="M152.6,161.1L152.6,161.1c-0.2,0.3-0.5,0.4-0.8,0.2l-1.7-0.9c-0.3-0.2-0.4-0.5-0.2-0.8l0,0
	c0.2-0.3,0.5-0.4,0.8-0.2l1.7,0.9C152.6,160.4,152.6,160.8,152.6,161.1z"/>
<path id="XMLID_110_" class="st0" d="M149.4,162.7L149.4,162.7c-0.2,0.3-0.6,0.3-0.8,0.1l-1.6-1.2c-0.3-0.2-0.3-0.6-0.1-0.8l0,0
	c0.2-0.3,0.6-0.3,0.8-0.1l1.6,1.2C149.6,162.1,149.6,162.5,149.4,162.7z"/>
<path id="XMLID_109_" class="st0" d="M140.6,150.9L140.6,150.9c-0.3,0.1-0.6,0-0.8-0.3l-0.7-1.8c-0.1-0.3,0-0.6,0.3-0.8l0,0
	c0.3-0.1,0.6,0,0.8,0.3l0.7,1.8C140.9,150.5,140.9,150.8,140.6,150.9z"/>
<path id="XMLID_108_" class="st0" d="M150.4,164L150.4,164c-0.3,0-0.6-0.3-0.6-0.6v-0.2c0-0.3,0.3-0.6,0.6-0.6l0,0
	c0.3,0,0.6,0.3,0.6,0.6v0.2C150.9,163.7,150.6,164,150.4,164z"/>
<path id="XMLID_107_" class="st0" d="M145.9,167.1L145.9,167.1c-0.3,0-0.6-0.3-0.6-0.6v-0.2c0-0.3,0.3-0.6,0.6-0.6l0,0
	c0.3,0,0.6,0.3,0.6,0.6v0.2C146.4,166.8,146.1,167.1,145.9,167.1z"/>
<path id="XMLID_106_" class="st0" d="M139.4,166.2L139.4,166.2c-0.3,0-0.6-0.3-0.6-0.6v-0.2c0-0.3,0.3-0.6,0.6-0.6l0,0
	c0.3,0,0.6,0.3,0.6,0.6v0.2C139.9,165.9,139.6,166.2,139.4,166.2z"/>
<path id="XMLID_105_" class="st0" d="M132.6,158.7L132.6,158.7c-0.3,0-0.6-0.3-0.6-0.6v-0.2c0-0.3,0.3-0.6,0.6-0.6l0,0
	c0.3,0,0.6,0.3,0.6,0.6v0.2C133.3,158.4,132.9,158.7,132.6,158.7z"/>
<path id="XMLID_104_" class="st0" d="M134.4,153.9L134.4,153.9c-0.3,0-0.6-0.3-0.6-0.6v-0.2c0-0.3,0.3-0.6,0.6-0.6l0,0
	c0.3,0,0.6,0.3,0.6,0.6v0.2C135.1,153.6,134.8,153.9,134.4,153.9z"/>
<path id="XMLID_103_" class="st0" d="M151.8,154.1L151.8,154.1c-0.3,0-0.6-0.3-0.6-0.6v-0.2c0-0.3,0.3-0.6,0.6-0.6l0,0
	c0.3,0,0.6,0.3,0.6,0.6v0.2C152.4,153.8,152.1,154.1,151.8,154.1z"/>
<path id="XMLID_102_" class="st0" d="M147.6,150.2L147.6,150.2c-0.3,0-0.6-0.3-0.6-0.6v-0.2c0-0.3,0.3-0.6,0.6-0.6l0,0
	c0.3,0,0.6,0.3,0.6,0.6v0.2C148.1,150,147.9,150.2,147.6,150.2z"/>
<path id="XMLID_101_" class="st0" d="M150.4,150.8L150.4,150.8c-0.3,0-0.6-0.3-0.6-0.6V150c0-0.3,0.3-0.6,0.6-0.6l0,0
	c0.3,0,0.6,0.3,0.6,0.6v0.2C150.9,150.5,150.6,150.8,150.4,150.8z"/>
<path id="XMLID_100_" class="st0" d="M148.8,166.4L148.8,166.4c-0.3,0-0.6-0.3-0.6-0.6v-0.2c0-0.3,0.3-0.6,0.6-0.6l0,0
	c0.3,0,0.6,0.3,0.6,0.6v0.2C149.4,166.1,149.1,166.4,148.8,166.4z"/>
<path id="XMLID_99_" class="st0" d="M136.1,166.2L136.1,166.2c-0.3,0-0.6-0.3-0.6-0.6v-0.2c0-0.3,0.3-0.6,0.6-0.6l0,0
	c0.3,0,0.6,0.3,0.6,0.6v0.2C136.6,165.9,136.4,166.2,136.1,166.2z"/>
<ellipse id="XMLID_98_" class="st0" cx="171.9" cy="136.4" rx="8.1" ry="7.5"/>
<line id="XMLID_97_" class="st2" x1="172.1" y1="116.3" x2="172.1" y2="155.9"/>
<rect id="XMLID_96_" x="157.3" y="136.1" class="st2" width="29.8" height="4.1"/>
<path id="XMLID_95_" class="st0" d="M172.1,128.3L172.1,128.3c-0.3,0-0.6-0.3-0.6-0.6v-2c0-0.3,0.3-0.6,0.6-0.6l0,0
	c0.3,0,0.6,0.3,0.6,0.6v2C172.8,128,172.4,128.3,172.1,128.3z"/>
<path id="XMLID_94_" class="st0" d="M171.9,147.4L171.9,147.4c-0.3,0-0.6-0.3-0.6-0.6v-2c0-0.3,0.3-0.6,0.6-0.6l0,0
	c0.3,0,0.6,0.3,0.6,0.6v2C172.6,147.2,172.3,147.4,171.9,147.4z"/>
<path id="XMLID_93_" class="st0" d="M176.8,143.8l-0.1,0.1c-0.2,0.2-0.6,0.1-0.7-0.1l-1.1-1.8c-0.2-0.2-0.1-0.6,0.1-0.7l0.1-0.1
	c0.2-0.2,0.6-0.1,0.7,0.1l1.1,1.8C177.1,143.3,176.9,143.6,176.8,143.8z"/>
<path id="XMLID_92_" class="st0" d="M173.8,131.2L173.8,131.2c-0.3-0.1-0.4-0.5-0.3-0.8l0.9-1.7c0.1-0.3,0.5-0.4,0.8-0.3l0,0
	c0.3,0.1,0.4,0.5,0.3,0.8l-0.9,1.7C174.4,131.3,174.1,131.4,173.8,131.2z"/>
<path id="XMLID_91_" class="st0" d="M168.1,132.3L168.1,132.3c-0.2,0.3-0.6,0.3-0.8,0.1l-1.5-1.2c-0.3-0.2-0.3-0.6-0.1-0.8l0,0
	c0.2-0.3,0.6-0.3,0.8-0.1l1.5,1.2C168.1,131.6,168.3,132,168.1,132.3z"/>
<path id="XMLID_90_" class="st0" d="M163.4,139.5L163.4,139.5c-0.2-0.3,0-0.6,0.2-0.8l1.7-0.9c0.3-0.2,0.6,0,0.8,0.2l0,0
	c0.2,0.3,0,0.6-0.2,0.8l-1.7,0.9C164.1,139.9,163.6,139.8,163.4,139.5z"/>
<path id="XMLID_89_" class="st0" d="M163.8,143.1L163.8,143.1c-0.2-0.2-0.2-0.6,0-0.8l1.5-1.3c0.2-0.2,0.6-0.2,0.8,0l0,0
	c0.2,0.2,0.2,0.6,0,0.8l-1.5,1.3C164.3,143.4,163.9,143.4,163.8,143.1z"/>
<path id="XMLID_88_" class="st0" d="M176.4,132.4L176.4,132.4c-0.2-0.2-0.2-0.6,0-0.8l1.4-1.4c0.2-0.2,0.6-0.2,0.8,0l0,0
	c0.2,0.2,0.2,0.6,0,0.8l-1.4,1.4C177.1,132.6,176.8,132.6,176.4,132.4z"/>
<path id="XMLID_87_" class="st0" d="M183.6,136.2L183.6,136.2c0,0.3-0.3,0.6-0.6,0.6l-2-0.1c-0.3,0-0.6-0.3-0.6-0.6l0,0
	c0-0.3,0.3-0.6,0.6-0.6l2,0.1C183.4,135.6,183.8,135.9,183.6,136.2z"/>
<path id="XMLID_86_" class="st0" d="M164.9,134.8L164.9,134.8c-0.1,0.3-0.4,0.5-0.8,0.3l-1.8-0.7c-0.3-0.1-0.5-0.4-0.3-0.8l0,0
	c0.1-0.3,0.4-0.5,0.8-0.3l1.8,0.7C164.8,134.1,164.9,134.5,164.9,134.8z"/>
<path id="XMLID_85_" class="st0" d="M181.9,139.9L181.9,139.9c-0.2,0.3-0.5,0.4-0.8,0.2l-1.7-0.9c-0.3-0.2-0.4-0.5-0.2-0.8l0,0
	c0.2-0.3,0.5-0.4,0.8-0.2l1.7,0.9C181.9,139.2,182.1,139.6,181.9,139.9z"/>
<path id="XMLID_84_" class="st0" d="M178.8,141.5L178.8,141.5c-0.2,0.3-0.6,0.3-0.8,0.1l-1.6-1.2c-0.3-0.2-0.3-0.6-0.1-0.8l0,0
	c0.2-0.3,0.6-0.3,0.8-0.1l1.6,1.2C178.9,140.9,178.9,141.3,178.8,141.5z"/>
<path id="XMLID_83_" class="st0" d="M169.9,129.7L169.9,129.7c-0.3,0.1-0.6,0-0.8-0.3l-0.7-1.8c-0.1-0.3,0-0.6,0.3-0.8l0,0
	c0.3-0.1,0.6,0,0.8,0.3l0.7,1.8C170.4,129.3,170.3,129.6,169.9,129.7z"/>
<path id="XMLID_82_" class="st0" d="M179.8,142.8L179.8,142.8c-0.3,0-0.6-0.3-0.6-0.6V142c0-0.3,0.3-0.6,0.6-0.6l0,0
	c0.3,0,0.6,0.3,0.6,0.6v0.2C180.3,142.5,180.1,142.8,179.8,142.8z"/>
<path id="XMLID_81_" class="st0" d="M175.3,145.9L175.3,145.9c-0.3,0-0.6-0.3-0.6-0.6v-0.2c0-0.3,0.3-0.6,0.6-0.6l0,0
	c0.3,0,0.6,0.3,0.6,0.6v0.2C175.9,145.6,175.6,145.9,175.3,145.9z"/>
<path id="XMLID_80_" class="st0" d="M168.8,145L168.8,145c-0.3,0-0.6-0.3-0.6-0.6v-0.2c0-0.3,0.3-0.6,0.6-0.6l0,0
	c0.3,0,0.6,0.3,0.6,0.6v0.2C169.4,144.7,169.1,145,168.8,145z"/>
<path id="XMLID_79_" class="st0" d="M162.1,137.5L162.1,137.5c-0.3,0-0.6-0.3-0.6-0.6v-0.2c0-0.3,0.3-0.6,0.6-0.6l0,0
	c0.3,0,0.6,0.3,0.6,0.6v0.2C162.6,137.3,162.4,137.5,162.1,137.5z"/>
<path id="XMLID_78_" class="st0" d="M163.9,132.7L163.9,132.7c-0.3,0-0.6-0.3-0.6-0.6v-0.2c0-0.3,0.3-0.6,0.6-0.6l0,0
	c0.3,0,0.6,0.3,0.6,0.6v0.2C164.4,132.4,164.3,132.7,163.9,132.7z"/>
<path id="XMLID_77_" class="st0" d="M181.1,132.9L181.1,132.9c-0.3,0-0.6-0.3-0.6-0.6v-0.2c0-0.3,0.3-0.6,0.6-0.6l0,0
	c0.3,0,0.6,0.3,0.6,0.6v0.2C181.8,132.7,181.4,132.9,181.1,132.9z"/>
<path id="XMLID_76_" class="st0" d="M176.9,129.1L176.9,129.1c-0.3,0-0.6-0.3-0.6-0.6v-0.2c0-0.3,0.3-0.6,0.6-0.6l0,0
	c0.3,0,0.6,0.3,0.6,0.6v0.2C177.6,128.8,177.3,129.1,176.9,129.1z"/>
<path id="XMLID_75_" class="st0" d="M179.8,129.6L179.8,129.6c-0.3,0-0.6-0.3-0.6-0.6v-0.2c0-0.3,0.3-0.6,0.6-0.6l0,0
	c0.3,0,0.6,0.3,0.6,0.6v0.2C180.3,129.4,180.1,129.6,179.8,129.6z"/>
<path id="XMLID_74_" class="st0" d="M178.1,145.2L178.1,145.2c-0.3,0-0.6-0.3-0.6-0.6v-0.2c0-0.3,0.3-0.6,0.6-0.6l0,0
	c0.3,0,0.6,0.3,0.6,0.6v0.2C178.8,144.9,178.4,145.2,178.1,145.2z"/>
<path id="XMLID_73_" class="st0" d="M165.4,145L165.4,145c-0.3,0-0.6-0.3-0.6-0.6v-0.2c0-0.3,0.3-0.6,0.6-0.6l0,0
	c0.3,0,0.6,0.3,0.6,0.6v0.2C166.1,144.7,165.8,145,165.4,145z"/>
</svg>
