<?xml version="1.0" encoding="utf-8"?>
<!-- Generator: Adobe Illustrator 19.0.0, SVG Export Plug-In . SVG Version: 6.00 Build 0)  -->
<svg version="1.1" id="Warstwa_1" xmlns="http://www.w3.org/2000/svg" xmlns:xlink="http://www.w3.org/1999/xlink" x="0px" y="0px"
	 viewBox="0 0 15 15" style="enable-background:new 0 0 15 15;" xml:space="preserve">
<style type="text/css">
	.st0{fill:#E0C15F;}
	.st1{fill:#DDBF3D;}
</style>
<g id="XMLID_20_">
	<circle id="XMLID_13_" class="st0" cx="7.6" cy="7.4" r="5.2"/>
	<path id="XMLID_26_" class="st1" d="M7.6,1.9L7.6,1.9c-0.1,0-0.2-0.1-0.2-0.2V0.4c0-0.1,0.1-0.2,0.2-0.2l0,0c0.1,0,0.2,0.1,0.2,0.2
		v1.3C7.8,1.8,7.7,1.9,7.6,1.9z"/>
	<path id="XMLID_27_" class="st1" d="M7.6,14.8L7.6,14.8c-0.1,0-0.2-0.1-0.2-0.2v-1.3c0-0.1,0.1-0.2,0.2-0.2l0,0
		c0.1,0,0.2,0.1,0.2,0.2v1.3C7.8,14.7,7.7,14.8,7.6,14.8z"/>
	<path id="XMLID_28_" class="st1" d="M14.9,7.1L14.9,7.1c0,0.1-0.1,0.2-0.2,0.2h-1.3c-0.1,0-0.2-0.1-0.2-0.2l0,0
		c0-0.1,0.1-0.2,0.2-0.2h1.3C14.9,6.9,14.9,7,14.9,7.1z"/>
	<path id="XMLID_29_" class="st1" d="M1.8,7.1L1.8,7.1c0,0.1-0.1,0.2-0.2,0.2H0.2c-0.1,0-0.2-0.1-0.2-0.2l0,0c0-0.1,0.1-0.2,0.2-0.2
		h1.3C1.7,6.9,1.8,7,1.8,7.1z"/>
	<path id="XMLID_30_" class="st1" d="M3.6,3.1L3.6,3.1c-0.1,0.1-0.2,0.1-0.3,0L2.4,2.2C2.3,2.1,2.3,2,2.4,1.9l0,0
		c0.1-0.1,0.2-0.1,0.3,0l0.9,0.9C3.7,2.9,3.7,3.1,3.6,3.1z"/>
	<path id="XMLID_31_" class="st1" d="M12.8,12.6L12.8,12.6c-0.1,0.1-0.2,0.1-0.3,0l-0.9-0.9c-0.1-0.1-0.1-0.2,0-0.3l0,0
		c0.1-0.1,0.2-0.1,0.3,0l0.9,0.9C12.8,12.4,12.8,12.5,12.8,12.6z"/>
	<path id="XMLID_32_" class="st1" d="M12.8,2.2L12.8,2.2c0.1,0.1,0.1,0.2,0,0.3l-0.9,0.9c-0.1,0.1-0.2,0.1-0.3,0l0,0
		c-0.1-0.1-0.1-0.2,0-0.3l0.9-0.9C12.6,2.2,12.7,2.2,12.8,2.2z"/>
	<path id="XMLID_33_" class="st1" d="M3.6,11.4L3.6,11.4c0.1,0.1,0.1,0.2,0,0.3l-0.9,0.9c-0.1,0.1-0.2,0.1-0.3,0l0,0
		c-0.1-0.1-0.1-0.2,0-0.3l0.9-0.9C3.4,11.3,3.5,11.3,3.6,11.4z"/>
</g>
</svg>
