<?xml version="1.0" encoding="utf-8"?>
<!-- Generator: Adobe Illustrator 19.0.0, SVG Export Plug-In . SVG Version: 6.00 Build 0)  -->
<svg version="1.1" id="Warstwa_1" xmlns="http://www.w3.org/2000/svg" xmlns:xlink="http://www.w3.org/1999/xlink" x="0px" y="0px"
	 viewBox="0 0 212.6 212.6" style="enable-background:new 0 0 212.6 212.6;" xml:space="preserve">
<style type="text/css">
	.st0{fill:#EAD88E;}
	.st1{fill:#FFFFFF;}
	.st2{fill:#D2EDF3;}
	.st3{fill:#363736;}
	.st4{fill:#363736;stroke:#434644;stroke-miterlimit:10;}
	.st5{fill:#363736;stroke:#404141;stroke-miterlimit:10;}
</style>
<path id="XMLID_262_" class="st0" d="M128.6,164.8l-1.7,1.9c-1.9,2.1-5.1,2.4-7.2,0.5l-27.3-23.7c-2.1-1.9-2.4-5.1-0.5-7.2l1.7-1.9
	c1.9-2.1,5.1-2.4,7.2-0.5l27.3,23.7C130.3,159.4,130.5,162.7,128.6,164.8z"/>
<circle id="XMLID_260_" class="st1" cx="65.6" cy="93.7" r="43.9"/>
<circle id="XMLID_259_" class="st1" cx="109.5" cy="69.6" r="43.9"/>
<path id="XMLID_258_" class="st1" d="M182.8,93.7c0,23.8-18.9,43.1-42.5,43.9c-0.5,0-1,0-1.4,0c-2.7,0-5.3-0.2-7.9-0.7
	c-2-0.4-4-0.9-5.9-1.5c-1.7-0.6-3.4-1.3-5.1-2c-3-1.4-5.8-3.2-8.4-5.2c-3.6-2.9-6.8-6.3-9.4-10.2c-0.1-0.2-0.2-0.3-0.3-0.5l0,0
	c-0.2-0.3-0.4-0.6-0.6-0.9c-0.8-1.4-1.6-2.8-2.2-4.2c-2.6-5.6-4.1-11.9-4.1-18.5c0-0.7,0-1.3,0-2c0.4-8.2,3-15.8,7.2-22.2
	c3.9-5.9,9.2-10.8,15.5-14.3s13.5-5.4,21.2-5.4c3.6,0,7.1,0.4,10.4,1.2c3.9,0.9,7.5,2.4,10.9,4.3c6.7,3.7,12.3,9.1,16.2,15.6l0,0
	c0.5,0.9,1,1.8,1.5,2.7l0,0C181.1,79.7,182.8,86.5,182.8,93.7z"/>
<circle id="XMLID_257_" class="st1" cx="103.9" cy="96.9" r="43.9"/>
<path id="XMLID_256_" class="st2" d="M146.6,96.7c-0.2,14.9-12.4,26.9-27.4,26.9s-27.1-12-27.4-26.9c0.4,14.7,12.5,26.4,27.4,26.4
	C134.1,123.1,146.3,111.4,146.6,96.7z"/>
<path id="XMLID_255_" class="st2" d="M92,111.6c-0.2,14.9-12.4,26.9-27.4,26.9s-27.1-12-27.4-26.9c0.4,14.7,12.5,26.4,27.4,26.4
	S91.6,126.3,92,111.6z"/>
<ellipse id="XMLID_253_" class="st3" cx="103.9" cy="96.5" rx="37.7" ry="40.1"/>
<path id="XMLID_322_" class="st3" d="M179.4,74.5c0,0.7,0,1.4,0,2.1c0,0.3,0,0.6,0,0.8c-0.4,6.3-2.2,12.1-5,17.2
	c-6.1,11.2-17.3,18.9-30.1,19.8c-0.8,0.1-1.7,0.1-2.5,0.1c-0.6,0-1.3,0-1.9,0c-0.1,0-0.2,0-0.4,0c-0.5,0-1-0.1-1.5-0.1
	c-0.1,0-0.1,0-0.2,0c-1.7-0.2-3.4-0.5-5-0.9c-2.6-0.7-5.1-1.6-7.4-2.8c-2-1-3.8-2.2-5.6-3.5c-4.1-3.1-7.5-7-10.2-11.6
	c-2.8-4.8-4.7-10.3-5.3-16.2c0-0.5-0.1-0.9-0.1-1.4c-0.1-1.1-0.1-2.3-0.1-3.5c0-0.7,0-1.4,0.1-2.1c0.1-2.1,0.4-4.1,0.7-6.1
	c0.7-3.4,1.7-6.6,3.1-9.6c0.5-1.1,1.1-2.2,1.7-3.3c5.8-9.9,15.5-16.9,26.8-18.6c1.7-0.3,3.5-0.4,5.3-0.4c5.4,0,10.6,1.2,15.2,3.4
	c4.8,2.3,9.1,5.5,12.6,9.6c2.6,3,4.8,6.4,6.4,10.2C178.1,62.7,179.4,68.4,179.4,74.5z"/>
<path id="XMLID_314_" class="st3" d="M204.6,96.5c0,21.7-16.2,39.4-36.5,40c-0.4,0-0.8,0-1.2,0c-2.3,0-4.6-0.2-6.8-0.7
	c-1.7-0.3-3.4-0.8-5-1.4c0,0,0,0-0.1,0c-1.5-0.5-3-1.1-4.4-1.9c-1.4-0.7-2.7-1.5-4-2.4c-1.1-0.8-2.2-1.6-3.2-2.4
	c-1.6-1.4-3.1-2.9-4.5-4.5c-1.3-1.5-2.5-3.1-3.5-4.8c0,0,0-0.1-0.1-0.1c-0.1-0.1-0.1-0.2-0.2-0.3l0,0l0,0c-0.2-0.3-0.3-0.6-0.5-0.9
	c-0.7-1.2-1.3-2.5-1.9-3.8l0,0c-0.4-0.9-0.7-1.8-1.1-2.7c-0.3-0.9-0.6-1.8-0.9-2.7c-1-3.6-1.6-7.5-1.6-11.5c0-0.6,0-1.2,0-1.8
	c0.3-7.5,2.5-14.4,6.2-20.3l0,0c1-1.5,2-3,3.2-4.4c2.9-3.5,6.3-6.4,10.1-8.6c1.2-0.7,2.3-1.3,3.6-1.8c2.5-1.1,5.2-2,7.9-2.5
	c0.8-0.2,1.5-0.3,2.3-0.4c1.4-0.2,2.9-0.3,4.4-0.3c0.5,0,1,0,1.4,0c2.6,0.1,5.1,0.5,7.5,1.1c1.3,0.3,2.6,0.7,3.8,1.2
	c1.9,0.7,3.8,1.6,5.5,2.7c3.8,2.3,7.2,5.2,10.1,8.7l0,0c0.6,0.8,1.2,1.5,1.8,2.3l0,0c0.5,0.8,1.1,1.6,1.6,2.4
	c0.2,0.3,0.3,0.6,0.5,0.8l0,0c0.5,0.8,0.9,1.6,1.3,2.5l0,0c1.9,3.9,3.2,8.3,3.8,12.8C204.5,92.9,204.6,94.7,204.6,96.5z"/>
<ellipse id="XMLID_250_" class="st3" cx="136.8" cy="99.4" rx="37.7" ry="40.1"/>
<ellipse id="XMLID_249_" class="st3" cx="45.8" cy="129.1" rx="37.8" ry="23.1"/>
<ellipse id="XMLID_248_" class="st4" cx="83.6" cy="116.4" rx="37.8" ry="23.1"/>
<path id="XMLID_247_" class="st5" d="M146.6,129.1c0,12.5-16.3,22.7-36.6,23.1c-0.4,0-0.8,0-1.2,0c-2.3,0-4.6-0.1-6.8-0.4
	c-1.7-0.2-3.5-0.5-5.1-0.8c-1.5-0.3-3-0.7-4.4-1.1c-2.6-0.8-5-1.7-7.2-2.8c-3.1-1.5-5.9-3.3-8.1-5.4c-0.1-0.1-0.2-0.2-0.3-0.3l0,0
	c-0.2-0.2-0.3-0.3-0.5-0.5c-0.7-0.7-1.4-1.5-1.9-2.2c-2.2-3-3.5-6.2-3.5-9.7c0-0.3,0-0.7,0-1c0.3-4.3,2.5-8.3,6.2-11.7
	c3.4-3.1,7.9-5.7,13.3-7.5s11.6-2.9,18.3-2.9c3.1,0,6.1,0.2,9,0.7c3.3,0.5,6.5,1.3,9.4,2.2c5.7,1.9,10.6,4.8,14,8.2l0,0
	c0.5,0.5,0.9,0.9,1.3,1.4l0,0C145.1,121.8,146.6,125.4,146.6,129.1z"/>
<ellipse id="XMLID_246_" class="st3" cx="78.6" cy="130.8" rx="37.8" ry="23.1"/>
<path id="XMLID_245_" class="st0" d="M140.6,190.2l-1.7,1.9c-1.9,2.1-5.1,2.4-7.2,0.5L106,170.3c-2.1-1.9-2.4-5.1-0.5-7.2l1.7-1.9
	c1.9-2.1,5.1-2.4,7.2-0.5l25.6,22.3C142.1,184.8,142.4,188,140.6,190.2z"/>
<path id="XMLID_244_" class="st0" d="M129.9,159.4l0.7,2.5c0.8,2.7-0.7,5.6-3.5,6.4l-15.3,4.6c-2.7,0.8-5.6-0.7-6.4-3.5l-0.7-2.5
	c-0.8-2.7,0.7-5.6,3.5-6.4l15.3-4.6C126.1,155.2,129,156.7,129.9,159.4z"/>
</svg>
