<?xml version="1.0" encoding="utf-8"?>
<!-- Generator: Adobe Illustrator 19.0.0, SVG Export Plug-In . SVG Version: 6.00 Build 0)  -->
<svg version="1.1" id="Warstwa_1" xmlns="http://www.w3.org/2000/svg" xmlns:xlink="http://www.w3.org/1999/xlink" x="0px" y="0px"
	 viewBox="0 0 7 15" style="enable-background:new 0 0 7 15;" xml:space="preserve">
<style type="text/css">
	.st0{fill:#5A5A58;}
	.st1{fill:#F9F9FA;}
</style>
<rect id="XMLID_16_" x="0.9" y="8" class="st0" width="5.2" height="6.6"/>
<rect id="XMLID_15_" x="2.1" y="5.7" class="st0" width="2.7" height="7"/>
<rect id="XMLID_14_" x="2.7" y="3.2" class="st0" width="1.6" height="3.8"/>
<rect id="XMLID_13_" x="3.4" y="0.1" class="st0" width="0.3" height="3.6"/>
<rect id="XMLID_12_" x="1.5" y="8.5" class="st1" width="0.6" height="0.6"/>
<rect id="XMLID_11_" x="3.2" y="8.5" class="st1" width="0.6" height="0.6"/>
<rect id="XMLID_10_" x="4.9" y="8.5" class="st1" width="0.6" height="0.6"/>
<rect id="XMLID_9_" x="1.5" y="9.9" class="st1" width="0.6" height="0.6"/>
<rect id="XMLID_8_" x="3.2" y="9.9" class="st1" width="0.6" height="0.6"/>
<rect id="XMLID_7_" x="4.9" y="9.9" class="st1" width="0.6" height="0.6"/>
<rect id="XMLID_6_" x="1.5" y="11.3" class="st1" width="0.6" height="0.6"/>
<rect id="XMLID_5_" x="3.2" y="11.3" class="st1" width="0.6" height="0.6"/>
<rect id="XMLID_4_" x="4.9" y="11.3" class="st1" width="0.6" height="0.6"/>
<rect id="XMLID_3_" x="3.2" y="7.1" class="st1" width="0.6" height="0.6"/>
<rect id="XMLID_2_" x="3.2" y="5.9" class="st1" width="0.6" height="0.6"/>
</svg>
