<?xml version="1.0" encoding="utf-8"?>
<!-- Generator: Adobe Illustrator 19.0.0, SVG Export Plug-In . SVG Version: 6.00 Build 0)  -->
<svg version="1.1" id="Warstwa_1" xmlns="http://www.w3.org/2000/svg" xmlns:xlink="http://www.w3.org/1999/xlink" x="0px" y="0px"
	 viewBox="0 0 62.4 62.4" style="enable-background:new 0 0 62.4 62.4;" xml:space="preserve">
<style type="text/css">
	.st0{fill:#4D4A4B;}
	.st1{fill:#E0A4AD;}
	.st2{fill:#FFFFFF;}
	.st3{fill:#F9F9FA;}
</style>
<path id="XMLID_1_" class="st0" d="M10.5,61.8L10.5,61.8c-0.9,0-1.5-0.7-1.5-1.5V7.9c0-0.9,0.7-1.5,1.5-1.5h0c0.9,0,1.5,0.7,1.5,1.5
	v52.4C12.1,61.1,11.4,61.8,10.5,61.8z"/>
<path id="XMLID_5_" class="st1" d="M42.7,6.4h-21h-1.6h-7v8.5v0v8.5h7h1.6h21c3.9,0,7-3.8,7-8.5v0C49.7,10.2,46.5,6.4,42.7,6.4z"/>
<rect id="XMLID_2_" x="15.3" y="3.3" class="st2" width="2.2" height="21.8"/>
<rect id="XMLID_3_" x="20.4" y="2.5" class="st2" width="1.9" height="23.5"/>
<rect id="XMLID_4_" x="25.6" y="1.7" class="st2" width="2" height="24.4"/>
<rect id="XMLID_6_" x="31.2" y="2.7" class="st2" width="1.7" height="23.5"/>
<rect id="XMLID_7_" x="36.4" y="3.2" class="st2" width="1.8" height="23.3"/>
<rect id="XMLID_8_" x="51.4" y="2.5" class="st3" width="1.8" height="23.3"/>
</svg>
